# xmcd CD database file
#
# Track frame offsets:
#	150
#	18867
#	33527
#	41519
#	57881
#	75205
#	90426
#	96421
#	114718
#	117561
#	129854
#	146476
#	161555
#	178456
#	193567
#	216171
#	231896
#	244595
#
# Disc length: 3881 seconds
#
# Revision: 0
# Processed by: cddbd v1.5.2PL0 Copyright (c) Steve Scherf et al.
# Submitted via: CDex 1.51
#
DISCID=ef0f2712
DTITLE=Stephen R. Cheney - Look At That
DYEAR=1900
DGENRE=Country
TTITLE0=Stephen R. Cheney - The Bay Of Islands Song
TTITLE1=Stephen R. Cheney - Holding On To A Dream
TTITLE2=Stepheh R. Cheney - (Yarn) The Omaru Nursing Home
TTITLE3=Stephen R. Cheney - What Colour Is The Wind
TTITLE4=Stephen R. Cheney - Love Me
TTITLE5=Stephen R. Cheney - I Cross My Heart
TTITLE6=Stephen R. Cheney - (Yarn) Love/Affair/Ugly
TTITLE7=Stephen R. Cheney - The Cowboy And The Lady
TTITLE8=Stephen R. Cheney - (Yarn) Mums
TTITLE9=Stephen R. Cheney - Almost Anytime
TTITLE10=Stephen R. Cheney - If Tomorrow Never Comes
TTITLE11=Stephen R. Cheney - Misty River
TTITLE12=Stephen R. Cheney - (Yarn) Water/Airflights/Heavy Plane
TTITLE13=Stephen R. Cheney - Words
TTITLE14=Stephen R. Cheney - Back Home Again
TTITLE15=Stephen R. Cheney - Take Me Home Country Roads
TTITLE16=Stephen R. Cheney - (Yarn) Life's Embarrasing Moments
TTITLE17=Stephen R. Chaney - Dig A Duck
EXTD=
EXTT0=
EXTT1=
EXTT2=
EXTT3=
EXTT4=
EXTT5=
EXTT6=
EXTT7=
EXTT8=
EXTT9=
EXTT10=
EXTT11=
EXTT12=
EXTT13=
EXTT14=
EXTT15=
EXTT16=
EXTT17=
PLAYORDER=
